<svg width="110" height="40" viewBox="0 0 110 40" fill="none" xmlns="http://www.w3.org/2000/svg">
<g clip-path="url(#clip0_350_1672)">
<path d="M8.70545 0.30357C8.98182 0.30357 9.22182 0.382141 9.42545 0.539286C9.64364 0.696429 9.78909 0.903572 9.86182 1.16071L14.2255 15.0893H10.8218L7.74545 4.225C7.68727 3.98214 7.62909 3.73929 7.57091 3.49643C7.51273 3.23929 7.46182 2.99643 7.41818 2.76786H6.82909C6.78545 2.99643 6.73455 3.23929 6.67636 3.49643C6.63273 3.73929 6.57454 3.98214 6.50182 4.225L3.42545 15.0893H0L4.38545 1.16071C4.45818 0.903572 4.59636 0.696429 4.8 0.539286C5.01818 0.382141 5.26545 0.30357 5.54182 0.30357H8.70545ZM11.0182 8.725V11.1893H3.20727V8.725H11.0182ZM21.0178 4.225C21.4105 4.225 21.8396 4.24643 22.3051 4.28929C22.7705 4.31786 23.236 4.38214 23.7015 4.48214C24.1815 4.56786 24.6178 4.69643 25.0105 4.86786L24.6615 6.86071C24.0796 6.84643 23.5196 6.83214 22.9815 6.81786C22.4578 6.80357 21.9851 6.79643 21.5633 6.79643C20.9087 6.79643 20.3924 6.88214 20.0142 7.05357C19.636 7.225 19.3596 7.53214 19.1851 7.975C19.0251 8.40357 18.9451 9.00357 18.9451 9.775C18.9451 10.5607 19.0251 11.175 19.1851 11.6179C19.3596 12.0607 19.636 12.3679 20.0142 12.5393C20.3924 12.7107 20.9087 12.7964 21.5633 12.7964C21.796 12.7964 22.0942 12.7893 22.4578 12.775C22.8215 12.7607 23.2142 12.7464 23.636 12.7321C24.0578 12.7036 24.4724 12.6607 24.8796 12.6036L25.1851 14.6179C24.6033 14.875 23.9415 15.0607 23.1996 15.175C22.4578 15.2893 21.7233 15.3464 20.996 15.3464C19.6578 15.3464 18.5887 15.1679 17.7888 14.8107C17.0033 14.4393 16.4361 13.8464 16.087 13.0321C15.7379 12.2179 15.5633 11.1321 15.5633 9.775C15.5633 8.41786 15.7379 7.33214 16.087 6.51786C16.4506 5.70357 17.0324 5.11786 17.8324 4.76072C18.6324 4.40357 19.6942 4.225 21.0178 4.225ZM31.7478 1.56786V11.7036C31.7478 12.0893 31.8351 12.3679 32.0096 12.5393C32.1987 12.6964 32.5042 12.775 32.926 12.775H34.3224L34.6715 14.9179C34.4096 15.0036 34.0896 15.075 33.7115 15.1321C33.3333 15.2036 32.9551 15.2536 32.5769 15.2821C32.1987 15.325 31.8787 15.3464 31.6169 15.3464C30.6424 15.3464 29.8787 15.0893 29.326 14.575C28.7878 14.0607 28.5187 13.3393 28.5187 12.4107L28.4969 1.56786H31.7478ZM34.7587 4.50357V6.58214H26.6205V4.61071L28.7151 4.50357H34.7587ZM40.0858 4.50357V11.4679C40.0858 11.9107 40.1804 12.225 40.3695 12.4107C40.5731 12.5964 40.8931 12.6893 41.3295 12.6893C41.7804 12.6893 42.224 12.6107 42.6604 12.4536C43.1113 12.2821 43.664 12.0179 44.3185 11.6607L44.5804 13.3964C43.7949 14.0679 43.024 14.5679 42.2676 14.8964C41.5113 15.225 40.7331 15.3893 39.9331 15.3893C37.8822 15.3893 36.8567 14.4036 36.8567 12.4321V4.50357H40.0858ZM47.2204 4.50357V15.0893H44.6676L44.2967 13.0107L43.9913 12.7107V4.50357H47.2204ZM55.9864 4.225C56.8882 4.225 57.6518 4.34643 58.2773 4.58929C58.9027 4.81786 59.3755 5.21786 59.6955 5.78929C60.03 6.34643 60.1973 7.11786 60.1973 8.10357V15.0893H57.6227L57.1645 12.7964L56.9464 12.475V8.08214C56.9464 7.58214 56.8227 7.21786 56.5755 6.98929C56.3427 6.76071 55.8918 6.64643 55.2227 6.64643C54.67 6.64643 53.9791 6.66786 53.15 6.71072C52.3209 6.73929 51.47 6.78214 50.5973 6.83929L50.2918 4.73929C50.8155 4.63929 51.4191 4.55357 52.1027 4.48214C52.7864 4.41072 53.47 4.35357 54.1536 4.31071C54.8373 4.25357 55.4482 4.225 55.9864 4.225ZM58.8664 8.575L58.8445 10.3536L54.0445 10.375C53.6518 10.375 53.3682 10.4679 53.1936 10.6536C53.0336 10.8393 52.9536 11.0893 52.9536 11.4036V11.9179C52.9536 12.275 53.0555 12.5536 53.2591 12.7536C53.4627 12.9393 53.79 13.0321 54.2409 13.0321C54.6191 13.0321 55.0264 12.9536 55.4627 12.7964C55.9136 12.6393 56.3573 12.4179 56.7936 12.1321C57.23 11.8464 57.6155 11.5107 57.95 11.125V12.4964C57.8191 12.7107 57.6227 12.9821 57.3609 13.3107C57.1136 13.625 56.7936 13.9393 56.4009 14.2536C56.0082 14.5536 55.55 14.8107 55.0264 15.025C54.5027 15.2393 53.9064 15.3464 53.2373 15.3464C52.5827 15.3464 51.9936 15.2321 51.47 15.0036C50.9464 14.775 50.5318 14.4393 50.2264 13.9964C49.9209 13.5536 49.7682 13.0036 49.7682 12.3464V11.2536C49.7682 10.4107 50.0591 9.75357 50.6409 9.28214C51.2227 8.81071 52.0227 8.575 53.0409 8.575H58.8664ZM66.4222 0.089285L66.4004 11.7036C66.4004 12.0607 66.5095 12.3321 66.7276 12.5179C66.9458 12.6893 67.2658 12.775 67.6876 12.775H68.5604L68.9313 14.9179C68.7567 15.0036 68.5095 15.075 68.1895 15.1321C67.8694 15.2036 67.5422 15.2536 67.2076 15.2821C66.8731 15.325 66.5895 15.3464 66.3567 15.3464C65.3822 15.3464 64.6113 15.0964 64.044 14.5964C63.4767 14.0964 63.1931 13.3964 63.1931 12.4964V0.089285H66.4222ZM76.9418 0.00357056C78.1345 0.00357056 79.1454 0.132142 79.9745 0.389284C80.8036 0.632143 81.4654 1.04643 81.96 1.63214C82.4691 2.20357 82.84 2.98929 83.0727 3.98929C83.3055 4.975 83.4218 6.21071 83.4218 7.69643C83.4218 9.18214 83.3055 10.425 83.0727 11.425C82.84 12.4107 82.4691 13.1964 81.96 13.7821C81.4654 14.3536 80.8036 14.7679 79.9745 15.025C79.1454 15.2679 78.1345 15.3893 76.9418 15.3893C75.7491 15.3893 74.7382 15.2679 73.9091 15.025C73.08 14.7679 72.4109 14.3536 71.9018 13.7821C71.3927 13.1964 71.0218 12.4107 70.7891 11.425C70.5564 10.425 70.44 9.18214 70.44 7.69643C70.44 6.21071 70.5564 4.975 70.7891 3.98929C71.0218 2.98929 71.3927 2.20357 71.9018 1.63214C72.4109 1.04643 73.08 0.632143 73.9091 0.389284C74.7382 0.132142 75.7491 0.00357056 76.9418 0.00357056ZM76.9418 2.59643C76.1709 2.59643 75.5673 2.74643 75.1309 3.04643C74.7091 3.34643 74.4036 3.86786 74.2145 4.61071C74.04 5.33929 73.9527 6.36786 73.9527 7.69643C73.9527 9.01071 74.04 10.0393 74.2145 10.7821C74.4036 11.525 74.7091 12.0464 75.1309 12.3464C75.5673 12.6464 76.1709 12.7964 76.9418 12.7964C77.6982 12.7964 78.2873 12.6464 78.7091 12.3464C79.1454 12.0464 79.4509 11.525 79.6255 10.7821C79.8145 10.0393 79.9091 9.01071 79.9091 7.69643C79.9091 6.36786 79.8145 5.33929 79.6255 4.61071C79.4509 3.86786 79.1454 3.34643 78.7091 3.04643C78.2873 2.74643 77.6982 2.59643 76.9418 2.59643ZM93.7085 4.225C95.7449 4.225 96.7631 5.20357 96.7631 7.16071V15.0893H93.534V8.14643C93.534 7.675 93.4467 7.35357 93.2722 7.18214C93.0976 6.99643 92.7994 6.90357 92.3776 6.90357C91.9122 6.90357 91.4322 6.99643 90.9376 7.18214C90.4431 7.35357 89.8322 7.625 89.1049 7.99643L88.9522 6.21786C89.7231 5.575 90.5085 5.08214 91.3085 4.73929C92.1231 4.39643 92.9231 4.225 93.7085 4.225ZM88.7995 4.50357L89.1704 6.60357L89.4322 6.88214V15.0893H86.2031V4.50357H88.7995ZM104.849 4.225C106.667 4.225 107.969 4.53214 108.754 5.14643C109.554 5.74643 109.954 6.64643 109.954 7.84643C109.969 8.81786 109.721 9.54643 109.212 10.0321C108.703 10.5036 107.823 10.7393 106.572 10.7393H100.551V8.96072H105.678C106.172 8.96072 106.485 8.86071 106.616 8.66072C106.761 8.44643 106.834 8.15357 106.834 7.78214C106.82 7.28214 106.667 6.93929 106.376 6.75357C106.1 6.55357 105.627 6.45357 104.958 6.45357C104.361 6.45357 103.896 6.53214 103.561 6.68929C103.227 6.84643 102.994 7.14643 102.863 7.58929C102.732 8.03214 102.667 8.675 102.667 9.51786C102.667 10.4036 102.747 11.0893 102.907 11.575C103.067 12.0464 103.336 12.375 103.714 12.5607C104.107 12.7464 104.645 12.8393 105.329 12.8393C105.823 12.8393 106.434 12.825 107.161 12.7964C107.903 12.7536 108.645 12.6893 109.387 12.6036L109.692 14.5536C109.271 14.7536 108.791 14.9107 108.252 15.025C107.714 15.1393 107.161 15.2179 106.594 15.2607C106.027 15.3179 105.481 15.3464 104.958 15.3464C103.591 15.3464 102.485 15.1536 101.641 14.7679C100.812 14.3679 100.209 13.7607 99.8305 12.9464C99.4669 12.1321 99.2851 11.0893 99.2851 9.81786C99.2851 8.43214 99.4742 7.33214 99.8524 6.51786C100.231 5.70357 100.827 5.11786 101.641 4.76072C102.456 4.40357 103.525 4.225 104.849 4.225ZM7.28727 24.7321C8.69818 24.7321 9.80364 24.875 10.6036 25.1607C11.4036 25.4464 11.9709 25.9393 12.3055 26.6393C12.6545 27.3393 12.8291 28.3179 12.8291 29.575C12.8291 30.8321 12.6618 31.8107 12.3273 32.5107C12.0073 33.2107 11.4764 33.7036 10.7345 33.9893C9.99273 34.2607 8.98909 34.3964 7.72364 34.3964C7.05454 34.3964 6.4 34.3679 5.76 34.3107C5.12 34.2536 4.52364 34.1821 3.97091 34.0964C3.41818 34.0107 2.94545 33.925 2.55273 33.8393C2.16 33.7393 1.89091 33.6464 1.74545 33.5607L1.81091 31.9321C2.66909 31.9321 3.55636 31.9321 4.47273 31.9321C5.40364 31.9321 6.32 31.9321 7.22182 31.9321C7.80364 31.9179 8.25455 31.8464 8.57454 31.7179C8.90909 31.5893 9.14182 31.3536 9.27273 31.0107C9.41818 30.6679 9.49091 30.1893 9.49091 29.575C9.49091 28.9464 9.41818 28.4607 9.27273 28.1179C9.14182 27.775 8.90909 27.5393 8.57454 27.4107C8.25455 27.2679 7.80364 27.1964 7.22182 27.1964C5.88364 27.1964 4.73455 27.2036 3.77455 27.2179C2.81455 27.2321 2.16727 27.2607 1.83273 27.3036L1.50545 24.9464C2.11636 24.875 2.69091 24.825 3.22909 24.7964C3.76727 24.7679 4.34909 24.7536 4.97455 24.7536C5.61455 24.7393 6.38545 24.7321 7.28727 24.7321ZM4.84364 24.9464V39.7321H1.50545V24.9464H4.84364ZM17.7636 29.1464L18.1563 31.2464L18.4618 31.525V39.7321H15.2327V29.1464H17.7636ZM23.0218 28.8679L22.7164 31.8036H21.8218C21.3127 31.8036 20.7818 31.875 20.2291 32.0179C19.6764 32.1607 18.9782 32.375 18.1345 32.6607L17.9163 30.8821C18.6727 30.225 19.4364 29.725 20.2073 29.3821C20.9782 29.0393 21.7273 28.8679 22.4545 28.8679H23.0218ZM29.9369 28.8679C31.2896 28.8679 32.3733 29.0536 33.1878 29.425C34.0024 29.7821 34.5842 30.3679 34.9333 31.1821C35.2969 31.9964 35.4787 33.0893 35.4787 34.4607C35.4787 35.8036 35.2969 36.8821 34.9333 37.6964C34.5842 38.5107 34.0024 39.0964 33.1878 39.4536C32.3733 39.8107 31.2896 39.9893 29.9369 39.9893C28.5987 39.9893 27.5151 39.8107 26.686 39.4536C25.8715 39.0964 25.2824 38.5107 24.9187 37.6964C24.5551 36.8821 24.3733 35.8036 24.3733 34.4607C24.3733 33.0893 24.5551 31.9964 24.9187 31.1821C25.2824 30.3679 25.8715 29.7821 26.686 29.425C27.5151 29.0536 28.5987 28.8679 29.9369 28.8679ZM29.9369 31.1821C29.3842 31.1821 28.9478 31.275 28.6278 31.4607C28.3078 31.6464 28.0824 31.975 27.9515 32.4464C27.8205 32.9179 27.7551 33.5893 27.7551 34.4607C27.7551 35.3179 27.8205 35.9821 27.9515 36.4536C28.0824 36.925 28.3078 37.2536 28.6278 37.4393C28.9478 37.6107 29.3842 37.6964 29.9369 37.6964C30.4896 37.6964 30.926 37.6107 31.246 37.4393C31.566 37.2536 31.7915 36.925 31.9224 36.4536C32.0533 35.9821 32.1187 35.3179 32.1187 34.4607C32.1187 33.5893 32.0533 32.9179 31.9224 32.4464C31.7915 31.975 31.566 31.6464 31.246 31.4607C30.926 31.275 30.4896 31.1821 29.9369 31.1821ZM42.2624 26.2107V36.3464C42.2624 36.7321 42.3496 37.0107 42.5242 37.1821C42.7133 37.3393 43.0187 37.4179 43.4405 37.4179H44.8369L45.186 39.5607C44.9242 39.6464 44.6042 39.7179 44.226 39.775C43.8478 39.8464 43.4696 39.8964 43.0915 39.925C42.7133 39.9679 42.3933 39.9893 42.1315 39.9893C41.1569 39.9893 40.3933 39.7321 39.8405 39.2179C39.3024 38.7036 39.0333 37.9821 39.0333 37.0536L39.0115 26.2107H42.2624ZM45.2733 29.1464V31.225H37.1351V29.2536L39.2296 29.1464H45.2733ZM52.564 28.8679C53.9167 28.8679 55.0004 29.0536 55.8149 29.425C56.6295 29.7821 57.2113 30.3679 57.5604 31.1821C57.924 31.9964 58.1058 33.0893 58.1058 34.4607C58.1058 35.8036 57.924 36.8821 57.5604 37.6964C57.2113 38.5107 56.6295 39.0964 55.8149 39.4536C55.0004 39.8107 53.9167 39.9893 52.564 39.9893C51.2258 39.9893 50.1422 39.8107 49.3131 39.4536C48.4985 39.0964 47.9095 38.5107 47.5458 37.6964C47.1822 36.8821 47.0004 35.8036 47.0004 34.4607C47.0004 33.0893 47.1822 31.9964 47.5458 31.1821C47.9095 30.3679 48.4985 29.7821 49.3131 29.425C50.1422 29.0536 51.2258 28.8679 52.564 28.8679ZM52.564 31.1821C52.0113 31.1821 51.5749 31.275 51.2549 31.4607C50.9349 31.6464 50.7095 31.975 50.5785 32.4464C50.4476 32.9179 50.3822 33.5893 50.3822 34.4607C50.3822 35.3179 50.4476 35.9821 50.5785 36.4536C50.7095 36.925 50.9349 37.2536 51.2549 37.4393C51.5749 37.6107 52.0113 37.6964 52.564 37.6964C53.1167 37.6964 53.5531 37.6107 53.8731 37.4393C54.1931 37.2536 54.4185 36.925 54.5495 36.4536C54.6804 35.9821 54.7458 35.3179 54.7458 34.4607C54.7458 33.5893 54.6804 32.9179 54.5495 32.4464C54.4185 31.975 54.1931 31.6464 53.8731 31.4607C53.5531 31.275 53.1167 31.1821 52.564 31.1821ZM65.7605 28.8679C66.1533 28.8679 66.5824 28.8893 67.0478 28.9321C67.5133 28.9607 67.9787 29.025 68.4442 29.125C68.9242 29.2107 69.3605 29.3393 69.7533 29.5107L69.4042 31.5036C68.8224 31.4893 68.2624 31.475 67.7242 31.4607C67.2005 31.4464 66.7278 31.4393 66.306 31.4393C65.6515 31.4393 65.1351 31.525 64.7569 31.6964C64.3787 31.8679 64.1024 32.175 63.9278 32.6179C63.7678 33.0464 63.6878 33.6464 63.6878 34.4179C63.6878 35.2036 63.7678 35.8179 63.9278 36.2607C64.1024 36.7036 64.3787 37.0107 64.7569 37.1821C65.1351 37.3536 65.6515 37.4393 66.306 37.4393C66.5387 37.4393 66.8369 37.4321 67.2005 37.4179C67.5642 37.4036 67.9569 37.3893 68.3787 37.375C68.8005 37.3464 69.2151 37.3036 69.6224 37.2464L69.9278 39.2607C69.346 39.5179 68.6842 39.7036 67.9424 39.8179C67.2005 39.9321 66.466 39.9893 65.7387 39.9893C64.4005 39.9893 63.3315 39.8107 62.5315 39.4536C61.746 39.0821 61.1787 38.4893 60.8296 37.675C60.4805 36.8607 60.306 35.775 60.306 34.4179C60.306 33.0607 60.4805 31.975 60.8296 31.1607C61.1933 30.3464 61.7751 29.7607 62.5751 29.4036C63.3751 29.0464 64.4369 28.8679 65.7605 28.8679ZM77.2789 28.8679C78.6316 28.8679 79.7153 29.0536 80.5298 29.425C81.3444 29.7821 81.9262 30.3679 82.2753 31.1821C82.6389 31.9964 82.8207 33.0893 82.8207 34.4607C82.8207 35.8036 82.6389 36.8821 82.2753 37.6964C81.9262 38.5107 81.3444 39.0964 80.5298 39.4536C79.7153 39.8107 78.6316 39.9893 77.2789 39.9893C75.9407 39.9893 74.8571 39.8107 74.028 39.4536C73.2134 39.0964 72.6244 38.5107 72.2607 37.6964C71.8971 36.8821 71.7153 35.8036 71.7153 34.4607C71.7153 33.0893 71.8971 31.9964 72.2607 31.1821C72.6244 30.3679 73.2134 29.7821 74.028 29.425C74.8571 29.0536 75.9407 28.8679 77.2789 28.8679ZM77.2789 31.1821C76.7262 31.1821 76.2898 31.275 75.9698 31.4607C75.6498 31.6464 75.4244 31.975 75.2934 32.4464C75.1625 32.9179 75.0971 33.5893 75.0971 34.4607C75.0971 35.3179 75.1625 35.9821 75.2934 36.4536C75.4244 36.925 75.6498 37.2536 75.9698 37.4393C76.2898 37.6107 76.7262 37.6964 77.2789 37.6964C77.8316 37.6964 78.268 37.6107 78.588 37.4393C78.908 37.2536 79.1335 36.925 79.2644 36.4536C79.3953 35.9821 79.4607 35.3179 79.4607 34.4607C79.4607 33.5893 79.3953 32.9179 79.2644 32.4464C79.1335 31.975 78.908 31.6464 78.588 31.4607C78.268 31.275 77.8316 31.1821 77.2789 31.1821ZM88.7084 24.7321L88.6865 36.3464C88.6865 36.7036 88.7956 36.975 89.0138 37.1607C89.232 37.3321 89.552 37.4179 89.9738 37.4179H90.8465L91.2175 39.5607C91.0429 39.6464 90.7956 39.7179 90.4756 39.775C90.1556 39.8464 89.8284 39.8964 89.4938 39.925C89.1593 39.9679 88.8756 39.9893 88.6429 39.9893C87.6684 39.9893 86.8975 39.7393 86.3302 39.2393C85.7629 38.7393 85.4793 38.0393 85.4793 37.1393V24.7321H88.7084Z" fill="#AC47FF"/>
<rect x="98" y="18" width="12" height="22" rx="3" fill="#222222"/>
<path d="M106 36.349H101.457V34.515C101.457 34.165 101.512 33.8745 101.621 33.6435C101.729 33.4125 101.873 33.2398 102.055 33.1255C102.237 33.0112 102.439 32.954 102.661 32.954C102.918 32.954 103.137 33.0263 103.319 33.171C103.501 33.3133 103.629 33.514 103.704 33.773C103.739 33.6027 103.803 33.4498 103.896 33.3145C103.99 33.1792 104.108 33.073 104.25 32.996C104.392 32.9167 104.556 32.877 104.74 32.877C104.885 32.877 105.03 32.9027 105.177 32.954C105.324 33.003 105.461 33.0893 105.587 33.213C105.711 33.3343 105.811 33.5012 105.888 33.7135C105.963 33.9235 106 34.1883 106 34.508V36.349ZM105.279 35.523V34.529C105.279 34.2653 105.226 34.0728 105.121 33.9515C105.014 33.8278 104.871 33.766 104.691 33.766C104.511 33.766 104.368 33.829 104.26 33.955C104.151 34.081 104.096 34.2723 104.096 34.529V35.523H105.279ZM102.171 35.523H103.375V34.55C103.375 34.305 103.321 34.1195 103.214 33.9935C103.104 33.8652 102.955 33.801 102.766 33.801C102.586 33.801 102.443 33.864 102.335 33.99C102.226 34.1137 102.171 34.298 102.171 34.543V35.523ZM106.098 30.5429C106.098 30.8323 106.023 31.0971 105.874 31.3374C105.725 31.5778 105.516 31.7703 105.247 31.9149C104.977 32.0596 104.661 32.1319 104.299 32.1319C103.926 32.1319 103.605 32.0608 103.336 31.9184C103.068 31.7738 102.863 31.5813 102.72 31.3409C102.578 31.1006 102.507 30.8346 102.507 30.5429C102.507 30.2723 102.562 30.0389 102.671 29.8429C102.779 29.6446 102.926 29.4859 103.112 29.3669C103.297 29.2456 103.506 29.1639 103.739 29.1219C103.972 29.0799 104.213 29.0776 104.46 29.1149V31.4739H104.012V29.6994L104.117 29.8604C104.007 29.8534 103.896 29.8593 103.784 29.8779C103.672 29.8943 103.57 29.9269 103.476 29.9759C103.383 30.0249 103.308 30.0949 103.252 30.1859C103.194 30.2746 103.165 30.3889 103.165 30.5289C103.165 30.6969 103.207 30.8393 103.291 30.9559C103.375 31.0726 103.489 31.1613 103.634 31.2219C103.779 31.2826 103.942 31.3129 104.124 31.3129H104.453C104.644 31.3129 104.813 31.2849 104.96 31.2289C105.107 31.1706 105.223 31.0854 105.307 30.9734C105.391 30.8591 105.433 30.7156 105.433 30.5429C105.433 30.3819 105.396 30.2466 105.321 30.1369C105.246 30.0273 105.134 29.9573 104.985 29.9269V29.0939C105.204 29.1289 105.398 29.2118 105.566 29.3424C105.732 29.4708 105.862 29.6376 105.958 29.8429C106.051 30.0483 106.098 30.2816 106.098 30.5429ZM106.098 26.95C106.098 27.1507 106.061 27.335 105.986 27.503C105.911 27.6687 105.797 27.8017 105.643 27.902C105.489 28 105.293 28.049 105.055 28.049H101.702V27.223H105.027C105.307 27.223 105.447 27.09 105.447 26.824C105.447 26.7424 105.438 26.6607 105.419 26.579C105.4 26.4974 105.372 26.404 105.335 26.299L105.916 26.18C105.967 26.3107 106.011 26.4379 106.046 26.5615C106.081 26.6852 106.098 26.8147 106.098 26.95ZM103.151 28.525H102.605V26.299H103.151V28.525ZM106 23.1733L105.174 23.2783H103.809C103.571 23.2783 103.395 23.3273 103.28 23.4253C103.166 23.521 103.109 23.6843 103.109 23.9153C103.109 24.0483 103.129 24.1638 103.168 24.2618C103.208 24.3598 103.265 24.4356 103.34 24.4893C103.412 24.5406 103.501 24.5663 103.606 24.5663V25.4693C103.349 25.4693 103.14 25.4075 102.979 25.2838C102.816 25.1601 102.697 24.9828 102.622 24.7518C102.545 24.5185 102.507 24.2396 102.507 23.9153C102.507 23.6213 102.555 23.3646 102.65 23.1453C102.744 22.926 102.888 22.7556 103.084 22.6343C103.28 22.513 103.531 22.4523 103.837 22.4523H106V23.1733ZM106.098 24.2863C106.098 24.578 106.048 24.8218 105.947 25.0178C105.845 25.2115 105.711 25.3573 105.545 25.4553C105.379 25.5533 105.2 25.6023 105.006 25.6023C104.791 25.6023 104.612 25.5463 104.467 25.4343C104.32 25.32 104.21 25.159 104.138 24.9513C104.063 24.7436 104.026 24.4986 104.026 24.2163C104.026 24.032 104.04 23.8581 104.068 23.6948C104.096 23.5291 104.133 23.3646 104.18 23.2013H104.663C104.621 23.3296 104.588 23.4696 104.565 23.6213C104.542 23.773 104.53 23.9153 104.53 24.0483C104.53 24.2443 104.566 24.4053 104.638 24.5313C104.711 24.6573 104.833 24.7203 105.006 24.7203C105.132 24.7203 105.24 24.669 105.331 24.5663C105.422 24.4636 105.468 24.3003 105.468 24.0763C105.468 23.906 105.431 23.7613 105.356 23.6423C105.281 23.5233 105.188 23.4335 105.076 23.3728C104.964 23.3098 104.852 23.2783 104.74 23.2783V23.0823C104.985 23.0823 105.211 23.1278 105.419 23.2188C105.624 23.3098 105.789 23.4451 105.912 23.6248C106.036 23.8021 106.098 24.0226 106.098 24.2863Z" fill="white"/>
</g>
<defs>
<clipPath id="clip0_350_1672">
<rect width="110" height="40" fill="white"/>
</clipPath>
</defs>
</svg>
