<?xml version="1.0" standalone="no"?>
<!DOCTYPE svg PUBLIC "-//W3C//DTD SVG 20010904//EN"
 "http://www.w3.org/TR/2001/REC-SVG-20010904/DTD/svg10.dtd">
<svg version="1.0" xmlns="http://www.w3.org/2000/svg"
 width="242.000000pt" height="256.000000pt" viewBox="0 0 242.000000 256.000000"
 preserveAspectRatio="xMidYMid meet">

<g transform="translate(0.000000,256.000000) scale(0.100000,-0.100000)"
fill="#000000" stroke="none">
<path d="M285 2242 c-51 -14 -101 -67 -110 -114 -4 -18 -5 -56 -3 -83 l3 -50
105 -3 c106 -3 190 12 171 31 -5 5 -17 4 -30 -3 -12 -6 -34 -9 -49 -7 l-27 4
27 2 c21 1 26 5 22 19 -4 12 -3 13 3 4 5 -7 17 -10 26 -6 14 5 17 21 17 84 l0
79 -42 4 c-39 3 -37 4 17 7 l60 4 -80 6 c-79 6 -79 6 38 8 70 1 117 6 117 12
0 13 -5 13 -123 14 -54 1 -118 -5 -142 -12z m145 -112 c0 -5 -5 -10 -11 -10
-5 0 -7 5 -4 10 3 6 8 10 11 10 2 0 4 -4 4 -10z m0 -46 c0 -2 -9 -4 -20 -4
-11 0 -20 4 -20 9 0 5 9 7 20 4 11 -3 20 -7 20 -9z"/>
<path d="M580 2252 c-5 -2 -10 -8 -10 -13 0 -6 70 -9 185 -8 102 1 185 6 185
10 0 5 -6 10 -12 11 -25 3 -338 3 -348 0z"/>
<path d="M975 2250 c-60 -11 8 -15 155 -9 80 3 138 7 130 8 -26 6 -254 6 -285
1z"/>
<path d="M1314 2249 c-2 -4 73 -9 168 -11 95 -2 182 -8 192 -12 13 -7 17 -6
12 2 -3 6 -27 14 -52 18 -63 9 -314 11 -320 3z"/>
<path d="M1722 2196 c9 -12 24 -34 32 -51 11 -20 16 -24 16 -12 0 9 -15 32
-32 50 -18 18 -25 24 -16 13z"/>
<path d="M1767 2077 c-3 -8 -1 -20 4 -28 6 -10 9 -7 9 14 0 29 -5 35 -13 14z"/>
<path d="M580 2002 c0 -10 215 -10 225 0 4 3 -45 7 -109 7 -64 1 -116 -3 -116
-7z"/>
<path d="M838 1998 c9 -9 15 -9 24 0 9 9 7 12 -12 12 -19 0 -21 -3 -12 -12z"/>
<path d="M1938 1923 c6 -2 18 -2 25 0 6 3 1 5 -13 5 -14 0 -19 -2 -12 -5z"/>
<path d="M1985 1910 c3 -5 11 -10 16 -10 6 0 7 5 4 10 -3 6 -11 10 -16 10 -6
0 -7 -4 -4 -10z"/>
<path d="M1914 1889 c-3 -6 -1 -16 5 -22 8 -8 11 -5 11 11 0 24 -5 28 -16 11z"/>
<path d="M170 1830 c-8 -14 -10 -181 -8 -543 3 -464 5 -525 20 -552 26 -47 72
-86 114 -96 49 -11 397 -10 415 2 8 5 -46 9 -131 9 -97 0 -140 3 -130 10 10 6
11 10 3 10 -7 0 -13 6 -13 14 0 8 -6 17 -12 19 -10 4 -10 6 0 6 8 1 12 23 12
76 0 60 3 76 18 85 16 11 16 11 -2 6 -13 -5 -17 -2 -13 9 4 8 2 17 -4 21 -7 4
-6 10 1 19 8 10 7 16 -7 24 -10 6 -14 11 -10 11 14 0 58 -32 68 -51 8 -15 6
-17 -8 -12 -10 3 -14 2 -10 -2 10 -11 87 -15 84 -4 -1 4 64 75 146 158 102
105 147 158 147 174 -1 21 -1 21 -11 2 -16 -28 -302 -315 -314 -315 -14 0 -85
72 -85 86 0 5 50 59 110 119 61 60 110 117 110 125 0 8 -49 65 -110 125 -60
60 -110 115 -110 122 0 13 74 93 87 93 11 0 297 -289 312 -315 11 -19 11 -19
9 2 -3 24 -301 333 -321 333 -7 0 -24 -11 -38 -24 -25 -23 -26 -23 -37 -5 -7
11 -12 63 -12 133 0 101 -2 115 -17 119 -10 3 34 6 97 7 297 6 283 17 -22 18
-309 2 -318 1 -328 -18z m216 -317 c20 -27 17 -35 -6 -16 -20 17 -26 33 -14
33 4 0 13 -8 20 -17z m44 5 c0 -14 -15 -16 -27 -3 -10 11 -9 13 7 12 11 -1 20
-5 20 -9z m-35 -69 c-4 -5 -12 -9 -18 -8 -9 0 -8 2 1 6 6 2 9 10 6 15 -4 7 -2
8 5 4 6 -4 9 -12 6 -17z m153 -102 l103 -103 -53 -52 c-29 -29 -59 -50 -66
-47 -7 3 -10 0 -6 -6 8 -13 -34 -59 -54 -59 -9 0 -12 -3 -9 -6 10 -11 -35 -45
-51 -39 -9 3 -12 0 -9 -9 4 -10 1 -13 -9 -9 -7 3 -14 0 -14 -7 0 -6 -5 -8 -11
-4 -8 4 -7 9 2 15 11 7 12 11 1 17 -10 7 -10 11 3 22 13 11 15 10 9 -3 -4 -12
0 -16 18 -15 36 2 48 16 41 49 -3 19 -1 29 6 29 8 0 9 5 1 19 -15 29 -13 214
3 230 10 11 9 12 -2 6 -10 -6 -12 -4 -7 4 4 6 3 18 -4 26 -8 10 -8 15 1 21 8
5 4 13 -12 26 -17 14 -18 16 -4 9 11 -6 66 -57 123 -114z m-128 48 c0 -8 -7
-15 -16 -15 -14 0 -14 3 -4 15 7 8 14 15 16 15 2 0 4 -7 4 -15z m-25 -453 c-3
-3 -11 0 -18 7 -9 10 -8 11 6 5 10 -3 15 -9 12 -12z m12 -238 c-3 -3 -12 -4
-19 -1 -8 3 -5 6 6 6 11 1 17 -2 13 -5z m-1 -22 c-16 -2 -32 0 -37 5 -5 5 7 7
29 4 34 -5 35 -6 8 -9z"/>
<path d="M450 1412 c0 -5 7 -15 15 -22 8 -7 15 -8 15 -2 0 5 -7 15 -15 22 -8
7 -15 8 -15 2z"/>
<path d="M2070 1830 c6 -11 13 -20 16 -20 2 0 0 9 -6 20 -6 11 -13 20 -16 20
-2 0 0 -9 6 -20z"/>
<path d="M1775 1295 c0 -280 1 -397 2 -258 2 138 2 368 0 510 -1 142 -2 29 -2
-252z"/>
<path d="M2085 1780 c3 -5 8 -10 11 -10 2 0 4 5 4 10 0 6 -5 10 -11 10 -5 0
-7 -4 -4 -10z"/>
<path d="M977 1083 c-4 -3 -7 -42 -7 -85 l0 -78 283 2 282 3 -275 5 -275 5 -3
68 -3 67 143 1 c108 1 131 4 93 9 -63 10 -229 12 -238 3z"/>
<path d="M446 922 c-3 -5 1 -9 9 -9 8 0 12 4 9 9 -3 4 -7 8 -9 8 -2 0 -6 -4
-9 -8z"/>
<path d="M1916 809 c-8 -24 -12 -99 -5 -99 7 0 21 102 14 108 -2 3 -7 -1 -9
-9z"/>
<path d="M1761 764 c0 -6 -12 -27 -25 -47 -14 -20 -19 -34 -13 -31 21 8 49 54
44 72 -3 9 -5 12 -6 6z"/>
<path d="M1877 658 c-24 -50 -67 -93 -122 -125 l-50 -28 -602 -3 c-394 -2
-603 -6 -603 -13 0 -6 200 -9 588 -7 l587 3 67 33 c41 20 81 49 103 75 39 45
68 97 55 97 -4 0 -15 -15 -23 -32z"/>
<path d="M1650 654 c-31 -11 -32 -13 -10 -13 14 0 34 6 44 14 23 18 14 17 -34
-1z"/>
<path d="M968 638 c9 -9 15 -9 24 0 9 9 7 12 -12 12 -19 0 -21 -3 -12 -12z"/>
<path d="M1070 640 c17 -12 245 -10 263 2 7 4 -53 8 -133 8 -100 0 -140 -3
-130 -10z"/>
<path d="M490 451 c0 -28 34 -81 67 -104 l39 -27 325 2 324 2 -321 6 -321 5
-36 28 c-42 32 -61 62 -53 83 3 8 -1 14 -9 14 -8 0 -15 -4 -15 -9z"/>
<path d="M2045 380 c-4 -6 -21 -20 -39 -31 -17 -10 -24 -19 -16 -19 19 0 77
46 69 55 -4 3 -10 1 -14 -5z"/>
<path d="M1520 321 c0 -11 52 -13 260 -12 95 0 94 0 88 6 -2 3 -82 8 -176 11
-125 5 -172 4 -172 -5z"/>
<path d="M1938 323 c6 -2 18 -2 25 0 6 3 1 5 -13 5 -14 0 -19 -2 -12 -5z"/>
</g>
</svg>
